<svg width="27" height="24" viewBox="0 0 27 24" fill="none" xmlns="http://www.w3.org/2000/svg">
<path d="M22.0691 9C23.634 9 26.3566 10.3594 26.3566 12C26.3566 13.6875 23.634 15 22.0691 15H16.7337L12.135 23.2453C11.8742 23.7141 11.3892 24 10.8629 24H8.29134C7.80631 24 7.45397 23.5219 7.58667 23.0438L9.82881 15H5.12489L3.14815 17.7C3.01087 17.8875 2.79124 18 2.56245 18H0.640612C0.283699 18 0 17.7047 0 17.3438C0 17.2828 0.00915159 17.2219 0.022879 17.1609L1.46425 12L0.022879 6.83906C0.0045758 6.77812 0 6.71719 0 6.65625C0 6.29063 0.288275 6 0.640612 6H2.56245C2.79124 6 3.01087 6.1125 3.14815 6.3L5.12489 9H9.83339L7.59125 0.95625C7.45397 0.478125 7.80631 0 8.29134 0H10.8629C11.3892 0 11.8742 0.290625 12.135 0.754688L16.7337 9H22.0691Z" fill="white"/>
</svg>
