<svg width="65" height="65" viewBox="0 0 65 65" fill="none" xmlns="http://www.w3.org/2000/svg">
<path d="M51.6479 32.5271C52.0005 32.5769 52.3399 32.6958 52.6465 32.8769C52.9531 33.058 53.221 33.2978 53.4348 33.5826C53.6486 33.8673 53.8042 34.1915 53.8926 34.5364C53.981 34.8814 54.0005 35.2404 53.95 35.5929C53.2712 40.2892 51.0701 44.6331 47.6846 47.9579C44.2991 51.2828 39.9162 53.4049 35.2083 53.9987V56.875C35.2083 57.5933 34.923 58.2822 34.4151 58.7901C33.9072 59.298 33.2183 59.5833 32.5 59.5833C31.7817 59.5833 31.0928 59.298 30.5849 58.7901C30.077 58.2822 29.7917 57.5933 29.7917 56.875V53.9987C25.0845 53.4039 20.7024 51.2814 17.3175 47.9567C13.9327 44.632 11.7319 40.2887 11.0527 35.5929C10.9507 34.8818 11.1354 34.1593 11.5661 33.5843C11.9968 33.0094 12.6383 32.6291 13.3494 32.5271C14.0605 32.4251 14.783 32.6098 15.358 33.0405C15.9329 33.4712 16.3132 34.1126 16.4152 34.8237C16.9754 38.6901 18.9094 42.2254 21.8633 44.7822C24.8172 47.339 28.5933 48.7462 32.5 48.7462C36.4068 48.7462 40.1828 47.339 43.1367 44.7822C46.0906 42.2254 48.0247 38.6901 48.5848 34.8237C48.6353 34.4716 48.7546 34.1329 48.936 33.8269C49.1174 33.5209 49.3573 33.2536 49.642 33.0403C49.9267 32.8271 50.2506 32.672 50.5952 32.5839C50.9399 32.4958 51.2958 32.4765 51.6479 32.5271ZM32.5 5.41666C36.0915 5.41666 39.5359 6.84337 42.0754 9.38293C44.615 11.9225 46.0417 15.3669 46.0417 18.9583V32.5C46.0417 36.0915 44.615 39.5358 42.0754 42.0754C39.5359 44.615 36.0915 46.0417 32.5 46.0417C28.9085 46.0417 25.4642 44.615 22.9246 42.0754C20.3851 39.5358 18.9583 36.0915 18.9583 32.5V18.9583C18.9583 15.3669 20.3851 11.9225 22.9246 9.38293C25.4642 6.84337 28.9085 5.41666 32.5 5.41666Z" fill="#90CC1C"/>
</svg>
